# xmcd
#
# Track frame offsets:
#	150
#	28572
#	42075
#	65060
#	92287
#	117065
#	145272
#	157930
#	180767
#	197945
#	222382
#	252862
#
# Disc length: 3755 seconds
#
# Revision: 1
# Processed by: cddbd v1.5.1PL0 Copyright (c) Steve Scherf et al.
# Submitted via: CDex 1.50Beta5
#
DISCID=9a0ea90c
DTITLE=ミスター・ブラック - ザッツ・ユーロビート・クラシックス〜パッション
DYEAR=1996
DGENRE=
TTITLE0=ミスター・ブラック/パッション
TTITLE1=ギャングスターズ/ウイ・アー・ゴナ・ビー・ベター
TTITLE2=ラジオラマ/オール・ナイト・ロング
TTITLE3=ジェリー・ミルク/ラブ・イズ・オール
TTITLE4=アンドレア/テル・ミー
TTITLE5=アジア・ギャング/ビューティフル・ボーイ
TTITLE6=マチスモ/ナイス・アンド・スロー
TTITLE7=T.N.T./レーシング・マン
TTITLE8=ラモーン/レッツ・ゴー
TTITLE9=24アワーズ/ドント・ブレイク・マイ・ハート
TTITLE10=サンタクロース/ドゥ・ヤ・ワナ・ダンス
TTITLE11=ラブ・ブティック/アイム・カミング・アップ
EXTD=
EXTT0=
EXTT1=
EXTT2=
EXTT3=
EXTT4=
EXTT5=
EXTT6=
EXTT7=
EXTT8=
EXTT9=
EXTT10=
EXTT11=
PLAYORDER=
